<svg width="12" height="7" viewBox="0 0 12 7" fill="none" xmlns="http://www.w3.org/2000/svg">
<path id="XMLID_222_" d="M10.1163 1.03288L10.1163 1.03288C10.3528 0.789047 10.7381 0.789047 10.9745 1.03284C11.2085 1.27408 11.2085 1.66337 10.9746 1.9046C10.9746 1.9046 10.9745 1.90461 10.9745 1.90461L6.42924 6.59209C6.31623 6.70867 6.16195 6.775 6.00012 6.775C5.83828 6.775 5.68404 6.70867 5.57104 6.59211L10.1163 1.03288ZM10.1163 1.03288L6.00008 5.27787L1.88362 1.03285L1.88361 1.03284C1.64717 0.789046 1.26188 0.789047 1.02544 1.03288C0.907988 1.15397 0.85 1.31208 0.85 1.46874C0.85 1.62541 0.907993 1.78352 1.02547 1.90463C1.02547 1.90464 1.02548 1.90464 1.02548 1.90465L5.57102 6.59209L10.1163 1.03288Z" fill="#F67057" stroke="#F67057" stroke-width="0.3"/>
</svg>
