<svg width="16" height="12" viewBox="0 0 16 12" fill="none" xmlns="http://www.w3.org/2000/svg">
<path id="Vector" d="M9.95451 1.81943L13.1896 5.05448L0.82898 5.05448C0.370683 5.05448 7.35081e-07 5.42516 7.15048e-07 5.88346C6.95015e-07 6.34175 0.370682 6.71244 0.82898 6.71244L13.1828 6.71244L9.94777 9.94748C9.78602 10.1092 9.70514 10.3182 9.70514 10.5338C9.70514 10.7495 9.78602 10.9584 9.94777 11.1202C10.2713 11.4437 10.7902 11.4437 11.1137 11.1202L15.7574 6.47655C16.0809 6.15304 16.0809 5.63409 15.7574 5.31058L11.1137 0.666945C10.7902 0.34344 10.2713 0.34344 9.94777 0.666945C9.631 0.97023 9.631 1.49593 9.95451 1.81943Z" fill="white"/>
</svg>
